<svg xmlns="http://www.w3.org/2000/svg" width="900" height="330" viewBox="0 0 900 330">
<style>text{font-family:'Inter','SF Pro Display','Segoe UI',Helvetica,Arial,sans-serif}.m{font-family:'JetBrains Mono','SFMono-Regular',Consolas,monospace}</style>
<defs>
<linearGradient id="au" x1="0" x2="1"><stop offset="0" stop-color="#22d3ee"/><stop offset=".5" stop-color="#a78bfa"/><stop offset="1" stop-color="#fbbf24"/></linearGradient>
<linearGradient id="au2" x1="0" x2="1" y1="0" y2="1"><stop offset="0" stop-color="#22d3ee"/><stop offset="1" stop-color="#a78bfa"/></linearGradient>
<radialGradient id="g1" cx=".1" cy="0" r=".8"><stop offset="0" stop-color="#22d3ee" stop-opacity=".22"/><stop offset="1" stop-color="#22d3ee" stop-opacity="0"/></radialGradient>
<radialGradient id="g2" cx=".95" cy="1" r=".8"><stop offset="0" stop-color="#a78bfa" stop-opacity=".28"/><stop offset="1" stop-color="#a78bfa" stop-opacity="0"/></radialGradient>
<pattern id="dt" width="22" height="22" patternUnits="userSpaceOnUse"><circle cx="1" cy="1" r="1" fill="#fff" fill-opacity=".05"/></pattern>
</defs>
<clipPath id="c"><rect width="900" height="330" rx="22"/></clipPath>
<g clip-path="url(#c)"><rect width="900" height="330" fill="#06070d"/><rect width="900" height="330" fill="url(#dt)"/>
<rect width="900" height="330" fill="url(#g1)"/><rect width="900" height="330" fill="url(#g2)"/><text x="44" y="62" font-size="26" font-weight="800" fill="#f3f5fc">About me</text><rect x="44" y="76" width="70" height="4" rx="2" fill="url(#au)"/><rect x="36" y="94" width="828" height="38" rx="10" fill="#0f1426" fill-opacity="0.9"/>
<text x="54" y="120" font-size="20">🎯</text>
<text x="92" y="120" font-size="19" font-weight="800" fill="#22d3ee">Focus</text>
<text x="240" y="120" font-size="19" fill="#f3f5fc">Agentic LLM systems · AML &amp; RegTech · credit intelligence</text><rect x="36" y="136" width="828" height="38" rx="10" fill="#0f1426" fill-opacity="0.45"/>
<text x="54" y="162" font-size="20">🚀</text>
<text x="92" y="162" font-size="19" font-weight="800" fill="#22d3ee">Shipped</text>
<text x="240" y="162" font-size="19" fill="#f3f5fc">Argus (AML engine) · Atlas (credit SaaS) · RAG &amp; LLM agents</text><rect x="36" y="178" width="828" height="38" rx="10" fill="#0f1426" fill-opacity="0.9"/>
<text x="54" y="204" font-size="20">🧰</text>
<text x="92" y="204" font-size="19" font-weight="800" fill="#22d3ee">Core stack</text>
<text x="240" y="204" font-size="19" fill="#f3f5fc">Python · FastAPI · PostgreSQL · React · Claude · AWS</text><rect x="36" y="220" width="828" height="38" rx="10" fill="#0f1426" fill-opacity="0.45"/>
<text x="54" y="246" font-size="20">🔬</text>
<text x="92" y="246" font-size="19" font-weight="800" fill="#22d3ee">Research</text>
<text x="240" y="246" font-size="19" fill="#f3f5fc">PsyArXiv 2025: depression detection, AUC 0.973</text><rect x="36" y="262" width="828" height="38" rx="10" fill="#0f1426" fill-opacity="0.9"/>
<text x="54" y="288" font-size="20">💡</text>
<text x="92" y="288" font-size="19" font-weight="800" fill="#22d3ee">Motto</text>
<text x="240" y="288" font-size="19" fill="#f3f5fc">Ship it. Verify it. Cite the source.</text></g>
<rect x=".5" y=".5" width="899" height="329" rx="22" fill="none" stroke="#232842"/></svg>