<svg xmlns="http://www.w3.org/2000/svg" width="1280" height="230" viewBox="0 0 1280 230">
<style>text{font-family:'Inter','SF Pro Display','Segoe UI',Helvetica,Arial,sans-serif}.m{font-family:'JetBrains Mono','SFMono-Regular',Consolas,monospace}</style>
<defs>
<linearGradient id="au" x1="0" x2="1"><stop offset="0" stop-color="#22d3ee"/><stop offset=".5" stop-color="#8b5cf6"/><stop offset="1" stop-color="#f5b544"/></linearGradient>
<linearGradient id="au2" x1="0" x2="1" y1="0" y2="1"><stop offset="0" stop-color="#22d3ee"/><stop offset="1" stop-color="#8b5cf6"/></linearGradient>
<radialGradient id="g1" cx=".15" cy=".1" r=".7"><stop offset="0" stop-color="#22d3ee" stop-opacity=".22"/><stop offset="1" stop-color="#22d3ee" stop-opacity="0"/></radialGradient>
<radialGradient id="g2" cx=".9" cy=".95" r=".7"><stop offset="0" stop-color="#8b5cf6" stop-opacity=".25"/><stop offset="1" stop-color="#8b5cf6" stop-opacity="0"/></radialGradient>
<pattern id="dt" width="24" height="24" patternUnits="userSpaceOnUse"><circle cx="1" cy="1" r="1" fill="#fff" fill-opacity=".05"/></pattern>
</defs>
<clipPath id="c"><rect width="1280" height="230" rx="20"/></clipPath>
<g clip-path="url(#c)"><rect width="1280" height="230" fill="#06070d"/><rect width="1280" height="230" fill="url(#dt)"/>
<rect width="1280" height="230" fill="url(#g1)"/><rect width="1280" height="230" fill="url(#g2)"/><g class="s" style="animation-delay:0.00s"><rect x="48" y="40" width="184" height="150" rx="16" fill="#0d1020" stroke="#1c2033"/>
<rect x="48" y="40" width="184" height="3" fill="#22d3ee"/>
<text x="140" y="112" text-anchor="middle" font-size="40" font-weight="900" fill="#22d3ee">12.2M+</text>
<text x="140" y="148" text-anchor="middle" font-size="13" fill="#8d95ad">watchlist records</text>
<text x="140" y="166" text-anchor="middle" font-size="13" fill="#8d95ad">indexed in Argus</text></g><g class="s" style="animation-delay:0.12s"><rect x="248" y="40" width="184" height="150" rx="16" fill="#0d1020" stroke="#1c2033"/>
<rect x="248" y="40" width="184" height="3" fill="#22d3ee"/>
<text x="340" y="112" text-anchor="middle" font-size="40" font-weight="900" fill="#22d3ee">800</text>
<text x="340" y="148" text-anchor="middle" font-size="13" fill="#8d95ad">live data sources</text>
<text x="340" y="166" text-anchor="middle" font-size="13" fill="#8d95ad">scraped daily</text></g><g class="s" style="animation-delay:0.24s"><rect x="448" y="40" width="184" height="150" rx="16" fill="#0d1020" stroke="#1c2033"/>
<rect x="448" y="40" width="184" height="3" fill="#f5b544"/>
<text x="540" y="112" text-anchor="middle" font-size="40" font-weight="900" fill="#f5b544">35</text>
<text x="540" y="148" text-anchor="middle" font-size="13" fill="#8d95ad">AI report engines</text>
<text x="540" y="166" text-anchor="middle" font-size="13" fill="#8d95ad">shipped in Atlas</text></g><g class="s" style="animation-delay:0.36s"><rect x="648" y="40" width="184" height="150" rx="16" fill="#0d1020" stroke="#1c2033"/>
<rect x="648" y="40" width="184" height="3" fill="#f5b544"/>
<text x="740" y="112" text-anchor="middle" font-size="40" font-weight="900" fill="#f5b544">639</text>
<text x="740" y="148" text-anchor="middle" font-size="13" fill="#8d95ad">automated tests</text>
<text x="740" y="166" text-anchor="middle" font-size="13" fill="#8d95ad">guarding production</text></g><g class="s" style="animation-delay:0.48s"><rect x="848" y="40" width="184" height="150" rx="16" fill="#0d1020" stroke="#1c2033"/>
<rect x="848" y="40" width="184" height="3" fill="#f472b6"/>
<text x="940" y="112" text-anchor="middle" font-size="40" font-weight="900" fill="#f472b6">0.973</text>
<text x="940" y="148" text-anchor="middle" font-size="13" fill="#8d95ad">AUC in published</text>
<text x="940" y="166" text-anchor="middle" font-size="13" fill="#8d95ad">ML research</text></g><g class="s" style="animation-delay:0.60s"><rect x="1048" y="40" width="184" height="150" rx="16" fill="#0d1020" stroke="#1c2033"/>
<rect x="1048" y="40" width="184" height="3" fill="#8b5cf6"/>
<text x="1140" y="112" text-anchor="middle" font-size="40" font-weight="900" fill="#8b5cf6">500+</text>
<text x="1140" y="148" text-anchor="middle" font-size="13" fill="#8d95ad">student submissions</text>
<text x="1140" y="166" text-anchor="middle" font-size="13" fill="#8d95ad">graded by LLM</text></g></g>
<rect x=".5" y=".5" width="1279" height="229" rx="20" fill="none" stroke="#1c2033"/></svg>